HIERARCHY
ROOT Hip
{
   OFFSET 0.00000 0.00000 0.00000
   CHANNELS 6 Xposition Yposition Zposition Zrotation Yrotation Xrotation
   JOINT Head
   {
      OFFSET 0.000000 24.943800 0.000000
      CHANNELS 3 Zrotation Yrotation Xrotation
      End Site
      {
         OFFSET 0.000000 14.861699 0.000000
      }
      JOINT LeftShoulder
      {
         OFFSET 8.247329 0.000000 0.000000
         CHANNELS 3 Zrotation Yrotation Xrotation
         JOINT LeftHand
         {
            OFFSET 0.000000 -12.051899 0.000000
            CHANNELS 3 Zrotation Yrotation Xrotation
            End Site
            {
               OFFSET 0.000000 -13.199549 0.000000
            }
         }
      }
      JOINT RightShoulder
      {
         OFFSET -8.789759 0.000000 0.000000
         CHANNELS 3 Zrotation Yrotation Xrotation
         JOINT RghtHand
         {
            OFFSET 0.000000 -14.440650 0.000000
            CHANNELS 3 Zrotation Yrotation Xrotation
            End Site
            {
               OFFSET 0.000000 -9.891839 0.000000
            }
         }
      }
   }
   JOINT LeftHip
   {
      OFFSET 8.726865 0.000000 0.000000
      CHANNELS 3 Zrotation Yrotation Xrotation
      JOINT LeftKnee
      {
         OFFSET 0.000000 -24.599397 0.000000
         CHANNELS 3 Zrotation Yrotation Xrotation
         JOINT LeftFoot
         {
            OFFSET 0.000000 -18.756150 0.000000
            CHANNELS 3 Zrotation Yrotation Xrotation
            End Site
            {
               OFFSET 0.000000 0.000000 12.223049
            }
         }
      }
   }
   JOINT RightHip
   {
      OFFSET -8.726865 0.000000 0.000000
      CHANNELS 3 Zrotation Yrotation Xrotation
      JOINT RightKnee
      {
         OFFSET 0.000000 -22.263150 0.000000
         CHANNELS 3 Zrotation Yrotation Xrotation
         JOINT RightFoot
         {
            OFFSET 0.000000 -19.093200 0.000000
            CHANNELS 3 Zrotation Yrotation Xrotation
            End Site
            {
               OFFSET 0.000000 0.000000 12.277648
            }
         }
      }
   }
}
MOTION
Frames: 24
Frame Time: 0.016670
7.150359 78.754123 2.303849 31.323159 26.059897 255.135952 -5.857376 8.904298 14.193382 -5.143242 -71.124700 83.942212 62.074596 181.384949 136.848195 -40.880352 -9.401645 29.120412 -88.593065 13.668377 52.870616 -85.583186 -7.248989 78.005473 76.211292 -51.855510 -2.405574 -3.870480 -47.858828 -31.825055 -109.655791 -25.094282 84.971194 33.213731 -41.867984 56.785418 -50.684710 -39.923900 10.765746
9.034857 78.823484 1.455843 29.103873 29.852899 255.961776 -6.638904 8.574932 14.353064 -3.905413 -65.238798 83.817343 63.352894 183.121169 138.186734 -39.382878 -9.070849 28.444620 -87.390180 12.497758 52.857895 -84.497868 -5.178561 78.708211 71.474617 -52.741140 -3.353000 -3.625313 -48.156805 -31.777646 -110.920366 -21.542538 84.151933 31.869236 -40.808133 55.166130 -51.002768 -40.173356 10.422499
10.943404 78.707174 0.594937 26.869513 33.698258 256.600945 -7.766389 8.115553 14.598956 -2.328987 -60.427285 84.238704 63.733069 185.801445 141.232357 -37.857112 -8.852281 26.635661 -86.831116 12.144098 53.099834 -82.459180 -2.799250 79.547887 66.986493 -53.134388 -3.977828 -3.168976 -47.854532 -31.141602 -111.861246 -17.829411 83.209811 31.096533 -39.219800 53.532461 -51.613021 -39.954933 9.409881
12.944066 78.369173 -0.315800 24.680851 37.262141 257.630337 -7.940216 6.282847 13.331006 -1.642526 -54.224086 83.636971 66.506522 186.616382 144.471424 -39.176118 -7.455796 24.535757 -85.671322 11.006677 53.116472 -79.102695 -0.656889 80.166019 62.732952 -53.762273 -3.917968 -2.713192 -47.701218 -30.524303 -111.754654 -15.092403 81.792943 29.783433 -37.442315 52.549006 -51.762070 -40.289151 9.306789
14.989743 77.805141 -1.265566 22.396988 41.132670 258.474712 -8.993287 5.912952 12.306007 -0.393101 -51.672628 83.105193 69.640090 187.015210 146.883901 -39.412230 -7.219749 23.506622 -83.704405 8.909060 53.485726 -76.598516 1.390073 81.317623 59.518439 -54.219582 -3.988824 -2.566195 -47.587164 -30.339478 -111.624545 -12.195245 80.179017 28.731334 -36.356680 51.938937 -51.159507 -40.654287 10.427408
17.089870 76.990279 -2.247817 20.522768 45.522948 259.346900 -10.910644 9.245897 12.486817 0.514121 -56.479435 83.006852 68.917462 189.837786 150.852623 -38.765845 -8.666666 25.249142 -81.266212 5.970593 55.223418 -74.893666 3.497573 82.446162 57.171777 -54.824921 -4.165994 -2.276193 -47.788214 -30.078285 -111.037122 -9.201750 77.616788 28.082330 -35.997085 51.816844 -49.671789 -41.157292 13.077088
19.205225 75.925764 -3.260488 18.878421 49.109497 261.408552 -11.929583 8.291390 9.510740 -0.188522 -52.815828 82.372887 74.229116 188.812752 155.438481 -41.258601 -6.834492 25.522518 -78.872627 3.241042 55.747741 -73.299753 4.824729 83.977271 56.068097 -54.467115 -4.183101 -1.679782 -47.234825 -29.079520 -108.944249 -7.588473 75.585517 27.710188 -35.598622 51.098691 -47.847610 -41.747793 16.348562
21.317460 74.607195 -4.315788 17.713501 52.776151 263.789637 -13.092240 9.105499 7.240389 -0.272080 -51.205956 81.768429 78.099320 188.345171 158.562705 -42.420293 -5.873013 27.517652 -76.536313 0.652095 57.259344 -70.858288 6.273202 85.226896 55.338555 -53.655644 -3.927439 0.016482 -46.311135 -26.413801 -105.133414 -6.002311 73.130303 28.268299 -34.916603 49.966570 -46.432391 -42.581530 19.205590
23.420813 72.994274 -5.411807 18.042539 56.703336 267.510807 -14.701052 11.068750 5.497732 -0.177776 -51.096649 81.144519 80.859420 188.172395 160.851269 -41.765698 -6.245243 29.572349 -75.113318 -0.756808 59.315542 -70.579903 7.810819 86.755246 56.546644 -51.360417 -4.826724 1.836029 -44.501582 -23.282739 -98.854557 -4.324311 69.459390 29.301682 -34.862617 49.090362 -45.956549 -44.786653 21.333896
25.516946 71.094698 -6.606979 17.822467 60.648398 270.932841 -16.328324 12.914299 4.763986 -1.446488 -52.679975 79.733415 82.121994 188.209701 163.042872 -40.645602 -7.850589 30.809894 -73.931149 -1.992002 61.687366 -68.269346 8.781584 87.609655 56.491050 -51.239775 -4.251578 2.582654 -44.337534 -22.160749 -88.554024 -1.895321 65.062975 29.395181 -36.104701 48.814672 -45.565415 -48.411554 24.131396
27.542369 68.939251 -7.864413 19.895617 64.630651 277.019632 -18.326009 13.573318 2.482196 0.487389 -49.611687 81.136015 85.013623 187.810094 163.971272 -38.809084 -8.425102 30.886727 -73.964146 -1.566934 62.419501 -63.704416 9.156572 86.008652 54.480676 -54.030416 -2.156405 4.066124 -46.646248 -20.720822 -79.408640 1.465799 62.445380 32.618569 -39.219151 45.042181 -46.265850 -50.921762 24.572036
29.519941 66.521706 -9.188505 24.349802 68.314261 285.673973 -20.261971 14.563698 -0.127564 1.011888 -49.626946 81.005654 86.782143 187.879188 165.905473 -38.311214 -8.923878 31.120036 -73.900140 -1.277694 63.658674 -62.492099 9.449436 84.904982 54.036263 -55.272493 -2.049079 6.181732 -48.006473 -18.174058 -68.780784 6.667766 59.731794 37.717940 -44.799866 39.170015 -45.891966 -52.407481 25.968391
31.393463 63.898710 -10.487643 30.120741 71.569830 296.044332 -22.371673 15.910917 -3.162112 1.217226 -52.742690 81.073854 87.120600 188.249535 168.385350 -37.778367 -9.565189 32.726168 -73.031613 -2.162045 65.335541 -60.942069 9.088239 83.718182 52.857775 -57.041997 -2.169983 9.062880 -49.995397 -14.712400 -57.761271 11.963276 58.822819 43.874939 -52.399565 29.521823 -45.240666 -53.104707 27.321301
33.504536 61.004976 -12.071403 38.901640 75.174633 310.332896 -25.094603 17.080708 -6.563986 1.991683 -56.662805 82.253646 86.131937 187.178438 171.255683 -39.725797 -9.133958 36.041368 -70.140285 -5.122430 67.542163 -57.986312 7.896474 81.983218 51.065001 -59.475361 -2.060121 11.285462 -52.267114 -12.230979 -47.928097 15.489117 59.468818 51.511777 -57.913420 16.293198 -46.424697 -52.887248 27.551689
35.094161 57.916850 -13.520820 44.640211 77.840101 322.004897 -26.929554 18.002504 -10.681758 2.385378 -60.706626 83.245478 87.090588 187.206879 174.004916 -42.104428 -7.055716 40.761425 -66.207435 -12.624726 70.840441 -56.677316 5.090046 81.099084 49.889204 -61.628408 -2.844505 11.220737 -54.222478 -12.471411 -38.572984 16.228251 59.339427 58.571263 -61.065320 3.698061 -45.647271 -52.311142 28.445644
36.543197 54.600991 -14.957117 53.975116 81.146643 337.354381 -29.638865 17.693154 -13.925378 3.207917 -65.609609 84.607452 87.648034 187.205622 176.349952 -38.387808 -4.447832 44.767686 -63.273336 -18.593254 72.975360 -57.260228 1.492194 80.868887 50.423417 -62.686704 -4.488868 10.899481 -55.543040 -12.958445 -31.253890 15.348156 59.117664 65.478148 -59.842668 -8.289350 -44.817690 -53.022243 30.219694
37.893969 51.062845 -16.385059 227.296948 94.999209 156.965274 -23.330704 10.610046 -17.199140 -1.080929 -56.326265 82.301867 94.674031 187.184777 182.923845 -38.061444 4.429190 40.257336 -65.161979 -14.038476 71.393720 -58.313689 -2.450077 82.992099 53.926222 -60.227283 -5.453139 9.939874 -53.727692 -13.882038 -24.230576 10.568138 57.734742 66.203255 -57.900053 -14.997162 -43.187710 -53.102621 32.737056
39.172115 47.330484 -17.818923 35.845123 91.362857 331.403073 -21.857287 4.072813 -18.974730 -2.854979 -54.441529 82.470860 97.743347 187.344043 187.675020 -31.486107 9.865369 35.548891 -71.515837 -0.231494 67.789102 -58.808284 -7.004029 85.553488 58.736861 -57.179410 -5.814095 9.280436 -51.588979 -14.542337 -20.824268 4.712895 57.125445 68.725486 -54.627242 -20.976727 -41.396008 -53.424865 35.572247
40.390629 43.375372 -19.364205 48.416930 99.508896 350.270187 -17.334407 -3.024010 -21.367577 -7.206226 -50.995743 81.088778 100.629484 187.574466 194.170967 -33.234802 17.142259 36.502423 -74.294037 3.802311 61.408045 -62.528715 -12.980462 90.995038 65.779544 -55.758061 -4.016607 2.613754 -49.974356 -22.720313 -19.518483 -5.640488 56.452097 68.523402 -51.678048 -23.352258 -43.452229 -53.090654 33.849198
41.657619 39.373421 -20.848870 20.717874 101.230643 328.705777 -20.436466 0.951178 -22.495197 -6.687731 -58.849518 82.937751 100.474678 187.119097 197.142974 -31.292915 19.110654 44.168709 -76.320213 6.047852 59.148468 -68.706348 -17.267111 89.338430 68.893618 -55.822784 -2.141641 -5.386370 -49.954313 -33.122801 -24.294723 -9.586270 53.434909 68.192779 -49.431787 -20.668839 -57.624687 -56.452436 18.544363
43.111719 36.007440 -22.418513 15.648616 105.033741 327.128768 -18.967446 2.615334 -19.925766 -8.958229 -63.431455 81.349800 100.969519 186.808952 199.939171 -34.647951 24.103562 52.485240 -74.765095 2.770370 58.743916 -77.364398 -14.008960 92.377134 78.401972 -57.014007 3.913688 -9.711301 -52.022730 -39.864959 -31.811316 -10.898707 57.702572 75.579472 -43.530025 -21.116054 -65.540405 -60.283434 10.201506
44.650411 34.352955 -23.855512 19.015452 110.870697 329.137800 -16.348647 1.019229 -12.432385 -13.087721 -67.482276 77.529709 101.611235 186.537083 202.936108 -35.453360 27.215059 58.284668 -73.851386 0.844189 58.810770 -84.466190 -6.009365 96.960238 85.711825 -58.527140 9.899683 -8.607902 -53.705866 -39.913153 -42.351384 -9.133910 70.418158 86.582026 -35.476788 -21.930228 -65.462165 -57.498377 10.268261
46.092352 32.857921 -25.265741 18.961684 115.166415 326.898782 -13.273298 1.211554 -3.831144 -17.033015 -75.600953 73.082068 99.134561 185.056899 204.343318 -33.800311 27.962361 63.738116 -73.000112 -0.257995 60.247138 -89.358894 2.970549 98.137319 91.241478 -60.526507 14.591314 -6.625987 -55.304011 -38.992853 -49.221007 -3.444699 79.675229 94.263523 -30.497140 -21.130256 -65.020464 -55.688759 11.127679
47.146262 31.717124 -26.566128 17.920680 118.356045 325.014606 -10.750417 1.385626 0.618208 -20.366552 -80.666966 69.962652 98.570804 184.335358 207.519916 -31.527870 26.100234 68.963245 -73.128069 -0.058791 60.711482 -91.886330 7.764248 98.009793 93.634934 -62.348576 16.580253 -5.739601 -56.540248 -39.363538 -52.765103 0.741420 83.768029 97.652888 -28.946851 -20.781156 -65.112412 -56.349406 11.737825
